<svg version="1.1" id="Layer_1" xmlns="http://www.w3.org/2000/svg" xmlns:xlink="http://www.w3.org/1999/xlink" x="0px" y="0px"
	 width="100%" viewBox="0 0 720 1024" enable-background="new 0 0 720 1024" xml:space="preserve">
<path fill="#000000" opacity="1.000000" stroke="none" 
	d="
M645.877563,519.767761 
	C645.450745,553.243530 638.830872,585.029846 626.749146,615.667603 
	C609.022766,660.619507 581.265869,698.339478 544.056763,729.107910 
	C507.906891,759.000488 466.862640,779.074768 420.722839,787.336060 
	C329.067719,803.746826 247.448914,781.954651 177.967667,719.391785 
	C130.012039,676.211182 101.174026,622.013794 90.605835,558.287354 
	C79.879112,493.605072 90.854637,432.422333 122.888763,375.530334 
	C155.963409,316.790405 204.590622,275.242218 267.666992,251.093231 
	C294.891113,240.670395 323.169403,234.983276 352.371674,233.577530 
	C411.410614,230.735504 466.034882,244.808456 515.880554,276.402985 
	C566.334290,308.382935 602.882385,352.278809 625.621155,407.608093 
	C640.333313,443.406525 646.733948,480.685364 645.877563,519.767761 
M97.274773,448.671234 
	C89.927803,477.547485 88.413429,506.984650 90.672173,536.464966 
	C93.182297,569.226135 101.844009,600.540894 115.907829,630.403625 
	C136.311203,673.727600 165.779114,709.585815 204.568069,737.363037 
	C267.671967,782.552551 338.064087,798.632690 414.442139,785.521240 
	C484.223450,773.542175 540.953369,738.578125 584.696960,683.053101 
	C616.122681,643.163391 634.841309,597.714050 640.965942,547.212097 
	C644.171143,520.783569 643.918213,494.390533 639.598022,468.088318 
	C633.047607,428.207275 618.580688,391.431854 595.847717,358.004822 
	C570.175781,320.256226 537.265320,290.561951 496.987091,268.870911 
	C461.023804,249.503601 422.643768,238.859360 382.069427,236.467743 
	C349.919922,234.572708 318.289520,238.377609 287.329376,247.724075 
	C235.021591,263.515076 191.203094,292.224457 155.738739,333.647644 
	C127.177849,367.007416 107.899727,405.207611 97.274773,448.671234 
z"/>
<path fill="#000000" opacity="1.000000" stroke="none" 
	d="
M571.304565,578.153259 
	C550.231812,640.539062 509.730408,684.894714 449.873413,711.064026 
	C424.515198,722.150574 397.680542,727.288269 369.758423,727.703003 
	C333.977142,728.234497 300.330872,720.521423 268.660217,704.312256 
	C231.883759,685.489807 202.829315,658.187500 181.729660,622.602295 
	C159.899475,585.785156 149.708435,545.830200 151.936523,503.178711 
	C155.063614,443.317291 178.949448,392.934113 223.567062,352.625977 
	C255.791046,323.514374 293.654816,306.185699 336.468201,300.160248 
	C389.741150,292.662689 439.119659,303.965088 484.231659,333.275879 
	C517.872742,355.133667 543.237671,384.437622 560.516174,420.570526 
	C571.964294,444.511047 578.713013,469.772797 580.556885,496.381012 
	C582.479309,524.123108 579.855042,551.245850 571.304565,578.153259 
M210.201935,369.699219 
	C208.707260,371.488800 207.217209,373.282227 205.717239,375.067352 
	C166.258621,422.027039 149.868301,476.080811 156.161362,537.005798 
	C160.236694,576.460266 174.426086,612.159546 199.313950,642.877686 
	C252.872894,708.983459 322.672089,735.104370 406.150299,721.077881 
	C457.468567,712.455139 499.595947,685.840271 532.078552,644.958557 
	C571.296082,595.600464 585.296265,539.123779 575.205994,477.381592 
	C566.046448,421.334473 537.707703,375.979523 491.846802,342.249878 
	C442.183533,305.723633 386.390717,293.847504 326.136078,304.863159 
	C280.669861,313.175232 242.329926,335.467529 210.201935,369.699219 
z"/>
<path fill="#000000" opacity="1.000000" stroke="none" 
	d="
M294.172852,289.262024 
	C290.808380,290.409088 287.742889,291.258575 284.837738,292.487091 
	C280.692688,294.239960 277.134033,295.594299 273.246063,291.267639 
	C270.760559,288.501648 264.528412,292.184326 264.111542,296.265686 
	C263.372650,303.499878 259.682312,305.451416 253.053299,302.189392 
	C249.415085,300.399048 245.761627,297.424835 241.791763,301.868225 
	C241.957260,304.249237 243.768051,305.954224 244.626053,308.075745 
	C245.160004,309.395966 245.582581,310.745789 244.249893,311.682495 
	C242.828812,312.681335 241.633835,311.769287 240.922607,310.558594 
	C237.550034,304.817596 234.242142,299.038177 230.954727,293.247742 
	C229.875656,291.347046 230.893738,290.074066 232.485977,289.140198 
	C234.640320,287.876617 236.822968,286.659882 239.013855,285.460297 
	C242.484558,283.559967 246.020813,281.945831 249.634216,285.078613 
	C252.953430,287.956329 252.616806,291.486938 251.016357,295.286621 
	C253.189362,297.220062 255.740967,298.171570 258.496552,299.160858 
	C260.469391,295.942444 258.811127,292.978088 258.884308,290.113190 
	C258.982025,286.287415 258.764771,282.452606 258.646545,278.622803 
	C258.598999,277.081635 258.539642,275.583557 260.251282,274.793488 
	C262.088440,273.945465 263.424133,274.777405 264.698242,276.027222 
	C267.908356,279.176117 271.125244,282.319061 274.392120,285.408661 
	C275.682190,286.628723 276.767303,288.255646 279.336182,288.258698 
	C282.065735,282.765381 283.843048,276.785187 285.884583,270.605865 
	C282.823212,269.704895 280.751587,271.489594 278.449127,272.083008 
	C276.869873,272.490021 274.928528,273.436981 274.236206,271.132263 
	C273.596893,269.003967 275.525055,268.330109 277.103607,267.769470 
	C280.395935,266.600067 283.719482,265.518799 287.020874,264.374390 
	C288.413116,263.891785 289.831177,262.935211 291.178864,264.300201 
	C292.556061,265.695068 292.177551,267.328583 291.571045,268.965240 
	C290.009186,273.179840 288.472839,277.403961 286.947876,281.632080 
	C286.391541,283.174500 285.896149,284.738922 285.257355,286.636719 
	C288.372223,287.388092 290.587067,285.507843 293.060150,285.041779 
	C294.994507,284.677216 297.628998,282.440643 298.682678,285.411469 
	C299.773315,288.486694 296.163177,288.087769 294.172852,289.262024 
M243.071609,295.407806 
	C243.634003,295.055267 244.252151,294.767212 244.748245,294.338013 
	C246.189362,293.091217 248.493011,292.046539 246.799347,289.595520 
	C245.382690,287.545380 243.363861,288.019257 241.443207,288.950684 
	C240.698288,289.311951 239.999496,289.768738 239.252945,290.126038 
	C236.851990,291.275085 236.239853,292.879181 237.547928,295.339935 
	C239.081314,298.224579 240.763763,296.556000 243.071609,295.407806 
M267.114563,287.256378 
	C268.668121,283.801453 265.489777,283.597565 263.736755,282.387543 
	C264.447998,284.264557 260.351440,288.765015 267.114563,287.256378 
z"/>
<path fill="#000000" opacity="1.000000" stroke="none" 
	d="
M576.119141,402.841675 
	C582.224792,399.791412 588.127441,397.084686 593.900146,394.124512 
	C596.846313,392.613678 598.520264,393.278503 599.702454,396.262238 
	C600.558105,398.421875 601.748230,400.446442 602.681763,402.578308 
	C604.201843,406.049438 605.322693,409.567749 602.047668,412.726105 
	C598.924377,415.738037 595.546387,415.691315 591.881348,413.014740 
	C590.069397,415.514526 588.491699,417.899078 587.064026,421.944427 
	C593.604858,421.944427 599.338196,421.897583 605.070190,421.966675 
	C607.485474,421.995758 610.381775,421.351196 611.470520,424.486511 
	C612.580017,427.681793 609.618042,428.751770 607.910889,430.368042 
	C603.955811,434.112549 599.914307,437.765839 595.234741,442.076141 
	C601.955872,444.987061 607.930115,447.574493 614.893982,450.590546 
	C614.036987,446.962280 613.377319,444.454559 612.873108,441.915955 
	C612.615173,440.617249 612.437195,439.097778 614.137024,438.568512 
	C615.861267,438.031647 616.602661,439.334930 616.955566,440.645142 
	C618.080383,444.820831 619.274597,448.994568 620.059631,453.239746 
	C620.693542,456.667664 618.205811,456.837463 615.961792,455.999329 
	C612.070923,454.546051 608.336304,452.678802 604.509949,451.046631 
	C602.404663,450.148529 600.245911,449.375824 597.873230,448.454102 
	C596.698547,452.270813 599.101196,454.987823 599.359924,458.038727 
	C599.482178,459.479767 600.353760,461.252502 598.310791,461.844788 
	C596.378418,462.404968 595.710144,460.715759 595.304443,459.268707 
	C593.732849,453.663391 592.294556,448.020660 590.719116,442.416443 
	C590.036743,439.989044 591.447449,438.635956 593.049805,437.382111 
	C595.132385,435.752502 595.963013,433.979828 594.679382,431.356415 
	C593.451233,428.846588 592.981995,426.174835 589.054993,426.165009 
	C583.808105,426.151886 581.431763,421.547974 583.842896,416.820984 
	C584.672974,415.193573 585.761353,413.700043 586.653687,412.101776 
	C588.239441,409.261414 588.498535,406.472076 586.181091,403.804626 
	C583.621399,403.662415 581.793457,405.342468 579.656799,406.147217 
	C576.660889,407.275604 575.061707,406.657837 576.119141,402.841675 
M595.881958,410.314514 
	C598.167175,410.610901 599.554260,409.334747 599.528320,407.317047 
	C599.489563,404.293030 598.307434,401.244537 596.042114,399.412964 
	C594.396179,398.082153 592.480530,400.003052 590.814270,401.432556 
	C591.740356,404.602417 592.663025,407.714539 595.881958,410.314514 
M602.584106,426.299988 
	C600.900513,426.521149 598.929871,425.531342 597.598328,427.449860 
	C597.772461,429.000977 598.187866,430.340881 600.079773,430.994995 
	C601.421875,429.955872 602.993347,429.004639 604.204895,427.715149 
	C605.133850,426.726379 604.060547,426.442322 602.584106,426.299988 
z"/>
<path fill="#000000" opacity="1.000000" stroke="none" 
	d="
M581.602844,659.480347 
	C578.016113,659.404358 577.604858,656.632019 576.816467,654.377808 
	C574.955994,649.058228 573.277466,643.674988 571.334900,637.735168 
	C568.165527,640.049500 567.274231,643.390259 565.336060,645.902649 
	C564.333679,647.202087 563.463013,649.253784 561.537354,648.177612 
	C559.153748,646.845581 560.842346,644.946228 561.728943,643.489136 
	C564.581482,638.801086 567.663208,634.250427 570.445129,629.522400 
	C571.744568,627.313904 573.531677,627.198364 575.563538,627.620544 
	C579.423828,628.422668 580.716614,625.744629 582.341797,623.109131 
	C584.036499,620.360962 582.953247,618.640808 581.089722,616.592285 
	C578.035034,613.234192 579.622192,608.158813 584.006104,606.875000 
	C586.709351,606.083374 589.535034,605.687744 592.202209,604.802307 
	C594.217468,604.133240 595.505676,602.424744 595.578918,600.268066 
	C595.654480,598.045471 593.485107,598.012939 592.071045,597.321899 
	C591.026855,596.811523 589.897766,596.471191 588.866638,595.938599 
	C587.765137,595.369507 586.981201,594.562317 587.510681,593.137634 
	C588.122070,591.492493 589.351196,591.315613 590.742920,591.864990 
	C597.083130,594.367798 603.403687,596.920227 609.731018,599.455750 
	C611.907410,600.327820 611.575378,601.918274 610.885925,603.581421 
	C609.739746,606.346497 608.530823,609.086182 607.418213,611.864502 
	C606.058350,615.260193 603.900024,617.516663 599.950623,617.250244 
	C596.377686,617.009399 594.086182,615.198181 593.276733,611.623779 
	C593.173401,611.167236 592.814575,610.768494 592.321777,609.896606 
	C589.738464,610.522278 587.072144,611.168091 583.959778,611.921875 
	C585.815735,615.997253 588.819458,618.604065 591.322021,621.565247 
	C593.145691,623.723145 595.067627,625.798157 596.953735,627.902954 
	C598.132019,629.217834 598.978394,630.607727 597.882263,632.372681 
	C596.836548,634.056458 595.198486,634.090698 593.471375,633.910156 
	C588.680237,633.409485 583.887390,632.923523 579.092346,632.461731 
	C577.798462,632.337158 576.450745,631.928223 574.947815,633.100159 
	C575.811646,639.545837 579.082642,645.369507 580.870239,653.113342 
	C582.997192,649.827454 584.356079,647.651001 585.796692,645.530212 
	C586.715271,644.177979 587.649780,642.354492 589.686707,643.728027 
	C591.472534,644.932373 590.301819,646.396606 589.514587,647.630127 
	C587.014221,651.547974 584.456665,655.429321 581.602844,659.480347 
M605.730225,603.164795 
	C604.094482,602.028015 602.040405,600.406311 600.453308,602.127319 
	C598.476685,604.270813 597.092957,607.215942 597.660645,610.311096 
	C598.139160,612.919678 601.289185,613.364136 603.052490,611.066162 
	C604.670349,608.957825 605.631287,606.451294 605.730225,603.164795 
M590.024658,628.749329 
	C589.815308,626.118591 589.815308,626.118591 586.796875,624.003967 
	C585.602234,625.133484 584.455200,626.268311 585.038391,628.149719 
	C586.446167,629.011963 587.953735,628.803284 590.024658,628.749329 
z"/>
<path fill="#000000" opacity="1.000000" stroke="none" 
	d="
M164.579605,633.064087 
	C167.342133,636.359680 165.967407,639.209656 164.631851,642.175354 
	C162.234314,647.499023 162.345871,648.604126 165.196976,652.973938 
	C167.528503,652.643005 169.049011,650.695740 171.013855,649.607178 
	C172.527786,648.768494 174.053482,647.765991 175.320801,649.771301 
	C176.413589,651.500610 175.161011,652.557312 173.862625,653.428833 
	C168.750183,656.860229 163.585587,660.215393 158.513062,663.704468 
	C156.151733,665.328552 154.586700,664.721313 153.194809,662.453064 
	C151.628708,659.901001 149.887985,657.455994 148.321716,654.903992 
	C146.654358,652.187256 145.962906,649.301392 147.990326,646.480164 
	C150.039307,643.628845 152.824173,642.536682 156.307465,643.604187 
	C156.922867,643.792847 157.584610,643.830200 158.422012,643.970459 
	C159.822678,641.458862 160.960922,638.961914 161.404526,635.487305 
	C154.814285,636.149536 148.598114,636.796692 142.376373,637.384949 
	C140.615387,637.551453 138.649857,638.253845 137.399582,636.228882 
	C136.002182,633.965637 137.654617,632.466431 138.872864,630.937561 
	C142.575623,626.290588 146.329865,621.684692 150.662430,616.322144 
	C143.560898,614.330078 137.275879,612.567078 129.694870,610.440491 
	C131.200211,614.129028 132.248642,616.655823 133.261368,619.196838 
	C133.788086,620.518311 134.038559,621.900330 132.404068,622.594360 
	C130.684494,623.324585 130.006592,621.969666 129.463837,620.737061 
	C127.854752,617.082581 126.188217,613.446289 124.770035,609.716980 
	C123.368126,606.030457 124.486839,604.840881 128.509262,605.539001 
	C134.712234,606.615417 140.434891,609.647705 147.258499,610.243591 
	C147.263992,606.617371 145.054123,603.921814 144.185852,600.848206 
	C143.779907,599.411133 142.851837,597.814819 144.740967,596.939636 
	C146.670746,596.045593 147.420349,597.783081 148.012024,599.106201 
	C150.456009,604.571655 152.793045,610.084717 155.185333,615.573364 
	C156.002319,617.447754 155.119812,618.794006 153.835083,619.984985 
	C151.822418,621.850769 150.808502,623.635986 152.607010,626.453308 
	C154.356659,629.194214 155.458084,632.192993 159.708725,630.914551 
	C161.519302,630.370056 163.393967,630.692871 164.579605,633.064087 
M151.595825,649.926636 
	C151.124176,653.669373 153.320068,656.389038 155.909668,658.192383 
	C157.863358,659.552917 159.735062,657.477112 161.021118,655.760193 
	C157.423172,648.250732 156.409119,647.538818 151.595825,649.926636 
M148.767944,628.093628 
	C145.587723,627.593628 145.353195,630.280029 143.987213,632.096985 
	C149.904282,633.037964 150.454346,632.623901 148.767944,628.093628 
z"/>
<path fill="#000000" opacity="1.000000" stroke="none" 
	d="
M475.762909,294.591095 
	C480.290283,292.484894 484.892242,291.412109 489.138489,288.455536 
	C487.137421,286.041229 484.257751,285.464905 482.000458,283.984131 
	C480.863617,283.238403 479.594330,282.444672 480.328491,280.835205 
	C481.183655,278.960449 482.748718,279.365845 484.154022,280.089630 
	C487.555359,281.841431 490.915588,283.673431 494.285706,285.485504 
	C495.614563,286.200012 497.078857,286.919708 496.958496,288.723511 
	C496.841888,290.471680 495.360962,291.181396 493.992615,291.781860 
	C489.727264,293.653687 485.420319,295.430603 481.147247,297.285217 
	C479.669250,297.926697 477.895081,298.107117 476.649506,300.304382 
	C479.494568,301.879700 482.336609,303.430786 485.155029,305.023682 
	C486.496307,305.781738 487.983093,306.726318 487.054443,308.502594 
	C486.066162,310.392914 484.464630,309.403778 483.162994,308.726227 
	C478.145355,306.114716 473.167633,303.426605 468.153992,300.807343 
	C466.092468,299.730377 465.320129,297.997253 465.679749,295.837891 
	C466.342621,291.857758 463.538422,290.879761 460.777496,289.459106 
	C457.861023,287.958405 456.287140,289.309113 454.340973,291.185669 
	C451.047485,294.361359 446.058380,293.082062 444.356750,288.758881 
	C443.628265,286.908020 443.251740,284.921844 442.622559,283.027985 
	C441.403076,279.357117 440.820435,278.906494 436.184052,277.748718 
	C434.302307,279.361786 434.363098,281.884308 433.501038,283.978699 
	C432.887421,285.469604 432.255035,286.857147 430.345886,286.416901 
	C428.273041,285.938904 428.502991,284.356659 428.980927,282.835205 
	C430.875336,276.804901 432.839386,270.796143 434.693176,264.753540 
	C435.437561,262.327057 436.850647,261.588104 439.222717,262.396271 
	C441.427002,263.147278 443.701477,263.706482 445.870453,264.543427 
	C449.227783,265.838898 452.997406,266.624695 453.345276,271.418365 
	C453.697937,276.278473 451.138641,278.746613 446.512024,279.997986 
	C447.573364,282.909454 448.520538,285.507751 449.597717,288.462646 
	C454.166443,286.041351 456.592987,281.932495 459.942657,278.853851 
	C461.164490,277.730865 462.186737,276.393372 463.377167,275.232819 
	C464.786591,273.858795 466.126587,272.091675 468.491638,273.052551 
	C470.904633,274.032867 470.472809,276.161438 470.453491,278.171509 
	C470.397736,283.963928 470.433807,289.757202 470.433807,295.441559 
	C472.484894,296.403198 473.897980,295.250366 475.762909,294.591095 
M446.336304,269.082764 
	C443.901733,268.406647 441.519653,266.200134 438.948792,268.277466 
	C437.843719,269.170319 437.028687,270.996338 437.870544,272.330414 
	C439.344849,274.666656 442.092010,274.685516 444.537323,274.942963 
	C446.045654,275.101776 447.643280,274.862274 448.378784,273.264679 
	C449.127533,271.638336 448.360291,270.393433 446.336304,269.082764 
M461.658356,285.555511 
	C462.834564,285.988922 464.233490,287.341766 465.199402,285.850098 
	C466.257324,284.216400 466.127228,282.214142 465.204681,279.898865 
	C463.465027,281.771179 461.180573,282.503876 461.658356,285.555511 
z"/>
<path fill="#000000" opacity="1.000000" stroke="none" 
	d="
M128.352325,425.952026 
	C132.135361,425.848877 135.461380,425.713776 138.788269,425.686646 
	C142.282104,425.658112 143.401016,424.247437 141.704086,421.020599 
	C139.244431,416.343414 136.789062,411.663971 134.123962,406.589661 
	C131.798233,408.728058 131.401642,411.464203 130.165955,413.699738 
	C129.435760,415.020782 128.718567,416.656189 126.847336,415.870270 
	C124.943718,415.070770 125.563095,413.388672 126.164024,412.006531 
	C127.622612,408.651825 129.184494,405.342163 130.692047,402.008606 
	C131.308670,400.645172 131.782990,399.036713 133.637665,399.062042 
	C135.356644,399.085541 136.225586,400.490417 136.916687,401.808319 
	C139.079285,405.932373 141.122009,410.119171 143.262070,414.255280 
	C143.938950,415.563446 144.775864,416.788818 145.824036,418.522705 
	C148.362778,416.167938 148.918411,413.156769 150.249130,410.608765 
	C151.035019,409.103973 151.438431,406.589508 153.993134,407.798035 
	C156.105820,408.797394 155.008438,410.675751 154.371765,412.154266 
	C152.201370,417.194427 149.900009,422.178558 147.760345,427.231384 
	C146.819870,429.452301 145.102005,430.139557 142.973343,430.008118 
	C139.393463,429.787140 138.233185,432.033081 137.077179,434.892120 
	C135.900406,437.802551 136.928299,439.472992 138.963943,441.367554 
	C142.994247,445.118530 141.755096,449.903198 136.403900,452.098236 
	C132.840118,453.560059 128.281189,453.637543 127.129227,458.557739 
	C126.983124,459.181732 126.979370,459.839050 126.892029,460.643402 
	C129.064148,462.157990 131.657547,462.102081 133.956802,462.889526 
	C135.351379,463.367126 136.407349,464.080933 136.038956,465.745667 
	C135.649719,467.504456 134.214905,467.582550 132.878204,467.279205 
	C126.559914,465.845520 120.259491,464.332489 113.957848,462.826233 
	C111.680222,462.281799 111.164398,460.722260 111.688278,458.641327 
	C112.296524,456.225250 113.016930,453.833344 113.522919,451.396576 
	C114.302261,447.643311 115.376190,444.185944 119.909882,443.562805 
	C124.243858,442.967072 126.771263,445.304749 128.307083,449.253967 
	C131.538132,449.218170 134.130096,447.814758 137.133789,446.296539 
	C133.727188,441.948853 129.084610,439.309753 125.309029,435.739624 
	C123.255157,433.797546 119.343590,432.658630 120.231590,429.075409 
	C121.170670,425.286133 125.227661,426.824890 128.352325,425.952026 
M123.282288,449.618469 
	C119.241325,447.854492 117.149712,449.765350 116.441505,455.641113 
	C116.197609,457.664642 116.869072,458.790619 118.807083,459.283447 
	C120.598289,459.738983 122.051765,459.624817 122.799149,457.570435 
	C123.662140,455.198364 124.116982,452.808075 123.282288,449.618469 
M133.848434,432.568939 
	C132.483582,428.148529 129.695190,430.932159 127.371384,431.265839 
	C129.385559,432.193817 130.042007,437.618195 133.848434,432.568939 
z"/>
<path fill="#000000" opacity="1.000000" stroke="none" 
	d="
M335.359009,767.290161 
	C335.077759,769.226013 334.863861,771.074158 332.965302,771.031372 
	C327.803680,770.915344 322.463593,770.731018 318.085999,767.692627 
	C313.725739,764.666199 315.106018,758.909119 321.059875,754.630798 
	C320.507629,753.345825 319.999817,751.969116 319.335052,750.672791 
	C318.680481,749.396240 318.707703,747.676697 316.762726,746.844604 
	C312.613068,751.031555 309.614655,756.200134 306.102722,760.972534 
	C304.778198,762.772400 303.743378,765.431030 300.833710,764.792053 
	C297.543457,764.069519 298.116638,761.018494 297.792816,758.655212 
	C297.072388,753.397888 296.733429,748.080139 295.029053,741.844482 
	C289.085876,745.422729 283.523621,748.771545 277.484314,752.407654 
	C280.267212,754.766602 283.307434,755.065491 285.842163,756.371155 
	C287.078125,757.007812 288.304016,757.721008 287.544708,759.408325 
	C286.921326,760.793579 285.654694,760.650330 284.524109,760.259521 
	C280.433380,758.845276 276.306580,757.505310 272.313599,755.847717 
	C269.032104,754.485535 269.570892,752.317322 272.032074,750.653625 
	C275.891052,748.045105 279.946930,745.728760 283.905975,743.267090 
	C285.560089,742.238525 287.179657,741.154358 289.101654,739.909790 
	C285.922668,737.534363 282.486694,736.783142 279.314484,735.472107 
	C277.994843,734.926819 276.774078,734.207458 277.287964,732.572083 
	C277.858002,730.757996 279.370544,731.233459 280.627441,731.678345 
	C286.276459,733.677368 291.899048,735.750793 297.543610,737.762512 
	C299.623810,738.503967 300.297760,740.169312 300.234589,742.090820 
	C300.131683,745.222839 301.839996,746.462891 304.590515,747.179565 
	C307.349609,747.898438 309.598755,748.060974 311.759338,745.543335 
	C315.683472,740.970581 320.466766,741.761353 323.029572,747.134705 
	C323.961029,749.087646 324.806671,751.086060 325.829163,752.989807 
	C326.871338,754.930237 328.619751,755.875488 330.812256,755.600952 
	C333.242188,755.296814 333.149475,753.127441 333.578461,751.417603 
	C333.738342,750.780334 333.680695,750.091187 333.756134,749.429504 
	C333.930237,747.902222 334.130707,746.138794 336.147186,746.293274 
	C338.476807,746.471802 338.410797,748.435059 338.155518,750.105896 
	C337.300598,755.701355 336.339600,761.280518 335.359009,767.290161 
M325.403442,766.006775 
	C327.783356,766.463135 330.378113,767.728088 331.378784,763.952454 
	C332.186798,760.903564 330.342896,760.124573 328.009216,759.753235 
	C325.293701,759.321167 321.933899,758.033997 320.622986,761.520996 
	C319.514557,764.469360 322.197113,765.399170 325.403442,766.006775 
M303.483704,757.074036 
	C304.753693,755.605774 306.190033,754.223633 306.170471,752.004700 
	C304.753693,751.077515 303.396820,750.250488 301.513641,751.357300 
	C301.571869,753.467896 300.764435,755.753723 303.483704,757.074036 
z"/>
<path fill="#000000" opacity="1.000000" stroke="none" 
	d="
M468.097473,748.887085 
	C468.775238,750.712463 469.254395,752.311829 467.389404,753.100281 
	C463.565521,754.716675 459.808167,756.581726 455.651947,757.244934 
	C452.818146,757.697021 450.324951,757.046753 448.667389,754.492432 
	C447.023407,751.958984 446.243927,749.372009 448.376648,746.652100 
	C448.758881,746.164551 448.862366,745.458496 449.130035,744.760864 
	C446.806885,743.023987 444.846924,740.989441 441.708038,739.978271 
	C439.750549,746.013062 440.127197,752.200439 439.303619,758.201721 
	C439.014679,760.307251 439.476990,762.690369 436.723907,763.564758 
	C433.865051,764.472717 432.984344,762.097778 431.699219,760.467896 
	C428.115356,755.922485 424.567841,751.348450 420.349854,745.945129 
	C416.860779,752.543030 413.736481,758.451172 410.505524,764.560974 
	C413.468750,765.407288 415.781738,764.140869 418.187347,763.944824 
	C419.776306,763.815369 421.888702,763.105408 422.402130,765.330200 
	C422.934723,767.638306 420.844238,767.858765 419.204376,768.169495 
	C415.773285,768.819763 412.346252,769.497803 408.901093,770.064453 
	C407.455017,770.302368 405.796600,770.712219 404.738586,769.262878 
	C403.700287,767.840454 404.441956,766.397827 405.154816,765.053162 
	C408.105072,759.488342 411.064484,753.928284 414.493896,747.475952 
	C410.437866,748.118469 407.271667,748.676453 404.087433,749.099121 
	C402.636963,749.291687 400.760864,749.632202 400.340485,747.678040 
	C399.919647,745.721863 401.653900,745.233093 403.160187,744.944153 
	C408.869232,743.849060 414.598389,742.856384 420.296967,741.710510 
	C422.819275,741.203247 423.946564,742.833679 425.100281,744.472839 
	C426.841553,746.946899 429.090363,746.945923 431.748535,746.275574 
	C434.477356,745.587402 436.016998,744.214111 436.581024,741.342346 
	C437.727783,735.503662 442.068787,733.943604 447.089935,737.183105 
	C450.151337,739.158325 452.638855,742.940491 457.194427,740.975769 
	C457.920166,740.662842 458.567139,740.167297 459.489166,739.612610 
	C458.685760,737.272400 457.942627,735.101501 457.195038,732.932190 
	C456.711151,731.528015 456.747955,730.252441 458.305725,729.579041 
	C460.024231,728.836121 460.763092,730.050781 461.271301,731.337463 
	C463.530762,737.058350 465.738739,742.799561 468.097473,748.887085 
M453.347260,747.583008 
	C451.807037,748.998718 451.061279,750.749939 452.764252,752.307068 
	C455.462311,754.773926 458.051422,752.484680 460.584839,751.590698 
	C462.191101,751.023865 463.572571,750.196472 462.952881,747.937378 
	C462.194458,745.172424 460.929291,743.817444 457.995453,745.333069 
	C456.670929,746.017273 455.292725,746.597595 453.347260,747.583008 
M431.365448,750.459167 
	C429.940338,754.046509 433.436493,754.837708 434.968048,756.769226 
	C433.697021,754.685669 439.744293,749.278992 431.365448,750.459167 
z"/>
<path fill="#000000" opacity="1.000000" stroke="none" 
	d="
M507.641724,308.116760 
	C507.832764,306.672913 508.946564,305.720032 508.063538,304.138031 
	C504.447113,307.100586 500.916626,310.034180 497.335907,312.905090 
	C495.945831,314.019623 494.579681,315.577515 492.504608,314.255646 
	C490.365723,312.893097 491.322052,311.036041 491.889862,309.349426 
	C493.852631,303.519714 495.882721,297.712616 497.898926,291.901031 
	C498.400391,290.455627 498.986084,288.791779 500.920288,289.366821 
	C502.951233,289.970642 503.049652,291.613739 502.358887,293.421265 
	C500.782410,297.546448 499.253693,301.689850 498.525970,306.350006 
	C501.810364,303.603821 505.114594,300.880890 508.370178,298.101013 
	C509.858948,296.829773 511.251740,295.879852 513.204956,297.351257 
	C515.058777,298.747772 514.883240,300.339447 514.145020,302.213379 
	C512.695618,305.892517 511.192139,309.567047 510.652130,313.737640 
	C516.531189,312.898132 518.097107,303.821869 526.094910,305.737549 
	C523.552124,310.423889 519.686523,312.294922 516.705017,315.057739 
	C515.365356,316.299164 514.040588,317.632111 512.488708,318.551788 
	C510.004669,320.023956 508.501312,324.926941 504.903564,322.347046 
	C501.825836,320.140015 505.119507,316.892883 505.707520,314.142731 
	C506.122192,312.203522 506.925659,310.347443 507.641724,308.116760 
z"/>
<path fill="#000000" opacity="1.000000" stroke="none" 
	d="
M621.401001,489.315216 
	C615.208923,488.591797 609.434265,487.896423 603.659790,487.199280 
	C601.921692,486.989410 600.255249,486.542145 600.000427,484.485321 
	C599.767761,482.607239 601.295166,481.995941 602.679016,481.352173 
	C606.995850,479.343964 611.304810,477.318695 616.988586,474.657806 
	C610.996582,473.836975 606.469116,473.257172 601.956665,472.578339 
	C600.191467,472.312805 598.121216,472.278046 597.853516,469.784210 
	C597.619873,467.607666 599.330078,467.002838 600.843262,466.334290 
	C606.471313,463.847687 612.106262,461.376160 617.762756,458.955170 
	C619.059326,458.400146 620.657959,457.264771 621.579468,459.369202 
	C622.495178,461.460571 620.978516,462.403870 619.343628,463.080139 
	C615.409485,464.707428 611.458862,466.295013 606.570007,468.282867 
	C611.499878,470.222351 615.728333,469.841217 619.713989,470.699921 
	C621.796326,471.148529 623.717163,471.518311 623.967102,474.057159 
	C624.202576,476.448700 622.255920,477.054047 620.616455,477.813202 
	C617.007019,479.484528 613.372986,481.102753 608.783081,483.179779 
	C613.812134,484.373596 617.935913,484.785980 622.108521,484.973969 
	C624.013489,485.059784 626.148621,485.495728 625.862610,487.930664 
	C625.565918,490.456665 623.327209,489.262085 621.401001,489.315216 
z"/>
<path fill="#000000" opacity="1.000000" stroke="none" 
	d="
M255.469086,747.632446 
	C251.881531,747.704590 250.696762,746.145996 251.318985,742.919556 
	C252.161911,738.548706 252.803253,734.139038 253.708923,728.672668 
	C250.295822,732.782837 247.558105,736.085999 244.812698,739.382751 
	C243.639954,740.791077 242.447067,742.662720 240.343536,741.128113 
	C237.896805,739.343323 240.067429,737.906494 241.153000,736.654175 
	C245.190918,731.995972 249.321564,727.417847 253.438477,722.828552 
	C254.439407,721.712830 255.453491,720.477173 257.246552,721.255310 
	C259.225708,722.114258 259.109985,723.719971 258.793610,725.472290 
	C257.950714,730.141052 257.174683,734.821838 257.224487,739.895203 
	C260.414276,736.349792 263.605225,732.805420 266.793060,729.258362 
	C267.796631,728.141663 268.724060,726.815796 270.541107,727.597534 
	C272.246796,728.331543 272.466949,729.883972 272.212799,731.394348 
	C271.108337,737.958557 269.924500,744.510071 268.693726,751.051941 
	C268.447205,752.362305 267.961456,753.788208 266.115814,753.394409 
	C264.263947,752.999207 263.813324,751.714294 264.197937,749.984558 
	C265.204285,745.458557 266.192017,740.928467 267.520874,734.881592 
	C262.926910,739.830811 259.367859,743.665100 255.469086,747.632446 
z"/>
<path fill="#000000" opacity="1.000000" stroke="none" 
	d="
M293.264160,264.003906 
	C295.296753,259.899231 297.095703,261.524933 298.490845,264.123779 
	C300.446655,267.766968 301.610565,271.827332 304.584839,275.624573 
	C306.208160,271.515717 305.497192,267.549988 305.887878,263.740723 
	C306.090698,261.763428 305.986664,259.588196 308.520416,258.911407 
	C311.391907,258.144470 312.262024,260.346588 313.305115,262.242950 
	C315.143616,265.585266 316.969360,268.934631 319.021484,272.685059 
	C321.490845,266.956879 317.420471,260.093781 323.018250,255.578629 
	C324.961304,260.651550 324.042542,265.732361 324.027435,270.746094 
	C324.019440,273.399841 323.579254,276.050903 323.370941,278.706055 
	C323.262573,280.087585 323.083984,281.452545 321.517303,281.897095 
	C319.704041,282.411560 318.727814,281.222931 317.973053,279.842804 
	C315.743774,275.766602 313.545654,271.673340 310.914337,266.808380 
	C309.302490,271.996796 309.311249,276.504486 309.193024,281.001984 
	C309.149933,282.639496 309.311981,284.522491 307.183380,285.086151 
	C304.896271,285.691833 303.881256,284.062775 302.986206,282.394409 
	C299.760040,276.380829 296.547363,270.359985 293.264160,264.003906 
z"/>
<path fill="#000000" opacity="1.000000" stroke="none" 
	d="
M554.631958,666.224609 
	C557.859863,667.625732 560.741943,668.862671 563.623962,670.099548 
	C563.850525,669.880615 564.077087,669.661621 564.303650,669.442688 
	C561.577820,665.626343 558.843262,661.816223 556.130554,657.990540 
	C555.082336,656.512207 553.627380,655.006470 555.123108,653.095459 
	C556.578003,651.236755 558.320984,652.017517 560.073303,652.808716 
	C565.683350,655.341553 571.332825,657.787109 576.949890,660.304688 
	C578.282104,660.901855 580.122314,661.459595 579.370605,663.414062 
	C578.583374,665.460876 576.803589,665.150024 575.146790,664.401855 
	C571.211121,662.624756 567.283508,660.829895 562.598450,658.699219 
	C564.629944,663.459412 567.672119,666.676758 570.067810,670.283752 
	C571.020508,671.718079 572.095459,673.040771 570.747559,674.753784 
	C569.373840,676.499451 567.670532,676.416992 565.810852,675.611816 
	C561.587769,673.783325 557.347229,671.995239 552.065002,669.743713 
	C555.533752,674.291748 558.332092,677.938843 561.103943,681.605957 
	C562.170837,683.017456 563.038818,684.715454 561.240662,685.961731 
	C559.530762,687.146729 558.561829,685.404419 557.695801,684.247009 
	C554.306152,679.716919 550.928040,675.176819 547.633667,670.577393 
	C546.432068,668.899719 544.297180,667.141113 546.059387,664.875488 
	C547.882141,662.531860 550.008789,664.654358 551.971252,665.133667 
	C552.770569,665.328918 553.516052,665.744934 554.631958,666.224609 
z"/>
<path fill="#000000" opacity="1.000000" stroke="none" 
	d="
M139.436096,594.413940 
	C134.768784,597.387939 130.424255,600.175720 126.069160,602.946838 
	C124.820847,603.741150 123.397804,604.956848 122.182426,603.194763 
	C120.987175,601.461975 121.919014,600.059448 123.566200,599.078186 
	C127.493019,596.739014 131.418655,594.397827 136.578079,591.322205 
	C130.654831,591.322205 126.208023,591.342468 121.761559,591.311707 
	C120.101784,591.300232 118.361992,591.393433 117.694847,589.273987 
	C116.980965,587.006042 118.368599,585.887817 119.972900,584.838684 
	C123.591354,582.472473 127.203903,580.097229 132.013733,576.941711 
	C126.572441,577.277710 122.399498,577.553528 118.224121,577.785400 
	C116.238327,577.895630 113.760269,578.320251 113.768707,575.342590 
	C113.776360,572.637390 116.297928,573.135986 117.973557,573.083130 
	C123.633347,572.904785 129.298553,572.879272 134.961975,572.846008 
	C136.770447,572.835388 138.833954,572.595642 139.594879,574.847229 
	C140.404205,577.242126 138.387924,578.003967 136.880646,578.971497 
	C132.999359,581.463074 129.100937,583.927917 124.278442,586.995605 
	C129.416458,586.995605 133.500076,586.935364 137.580734,587.018555 
	C139.954651,587.067017 143.098038,586.077026 143.927994,589.372070 
	C144.682419,592.367310 141.492844,592.871094 139.436096,594.413940 
z"/>
<path fill="#000000" opacity="1.000000" stroke="none" 
	d="
M373.492798,757.565308 
	C373.981842,755.023560 374.389404,752.899780 374.782867,750.773315 
	C375.038788,749.389893 375.497650,748.167175 377.122894,747.944458 
	C378.984467,747.689331 379.812073,748.843872 380.377319,750.373901 
	C382.133911,755.128906 383.909515,759.876831 386.587830,764.505798 
	C387.461121,759.991760 388.261322,755.461731 389.245178,750.971924 
	C389.618347,749.269043 389.756653,747.123230 392.187805,746.870300 
	C394.665649,746.612549 395.145599,748.640991 395.753326,750.328796 
	C397.726868,755.809692 399.663300,761.304871 401.527802,766.823669 
	C402.075897,768.446045 403.372528,770.654602 400.628601,771.343933 
	C398.218353,771.949402 397.719604,769.624756 397.185089,767.907654 
	C395.902496,763.787415 394.718292,759.636475 392.678009,755.391907 
	C391.907288,758.942322 391.217285,762.512939 390.337769,766.036255 
	C389.738892,768.435486 390.525299,771.909241 386.779205,772.311829 
	C382.634491,772.757141 382.947052,768.850769 381.886383,766.502380 
	C380.538635,763.518311 379.556488,760.369202 377.905334,755.910400 
	C376.907684,761.482056 376.174530,765.653992 375.408173,769.819885 
	C375.081726,771.594604 374.988861,773.963257 372.386230,773.417786 
	C370.115814,772.941956 370.851990,770.814697 371.147736,769.234314 
	C371.851379,765.474426 372.646973,761.731689 373.492798,757.565308 
z"/>
<path fill="#000000" opacity="1.000000" stroke="none" 
	d="
M134.314728,394.517090 
	C136.590973,392.272827 138.551682,393.828247 140.549149,394.388733 
	C143.886856,395.325195 147.227127,396.252502 151.419174,397.421509 
	C149.000458,392.912384 145.346405,390.611877 142.669159,387.489197 
	C141.352661,385.953644 139.731781,384.604553 141.167664,382.316040 
	C142.419022,380.321594 144.227203,380.739532 146.051407,381.186707 
	C150.217117,382.207886 154.385834,383.216858 158.477753,384.212402 
	C155.659821,381.151459 152.802368,378.067688 149.969452,374.961517 
	C148.647888,373.512512 146.586548,371.857605 148.599930,369.941986 
	C150.619965,368.020020 151.748459,370.617432 152.908295,371.758118 
	C157.054001,375.835449 161.088089,380.026001 165.185028,384.153229 
	C166.513443,385.491455 167.925735,386.819763 166.565323,388.858368 
	C165.398193,390.607300 163.736816,390.103912 162.076447,389.652283 
	C157.857193,388.504761 153.618378,387.429108 148.372406,386.059753 
	C151.128220,391.124481 154.918823,393.666077 157.776001,396.997162 
	C158.984909,398.406555 160.519409,399.702728 159.348389,401.744202 
	C158.124420,403.877991 156.230469,402.997803 154.468903,402.527527 
	C148.852707,401.028198 143.207642,399.630096 137.626053,398.012421 
	C136.097397,397.569336 133.621964,397.720215 134.314728,394.517090 
z"/>
<path fill="#000000" opacity="1.000000" stroke="none" 
	d="
M182.049988,340.336426 
	C178.573593,340.509125 175.409424,340.590363 173.712540,343.989471 
	C173.097824,345.220856 172.722717,346.573761 173.841873,347.689301 
	C174.892944,348.737000 176.057480,348.004700 177.044785,347.461517 
	C179.372101,346.181000 181.579391,344.671112 183.950577,343.484497 
	C186.496689,342.210297 189.114197,342.282715 191.483505,344.041870 
	C194.032990,345.934784 194.700714,348.563507 194.197266,351.575714 
	C193.289276,357.008240 186.901138,362.024933 181.928726,361.101471 
	C180.167374,360.774323 177.952820,360.351013 178.228043,357.924896 
	C178.491791,355.599976 180.324310,355.851929 182.084656,356.375366 
	C184.535660,357.104187 186.257355,355.628235 187.810852,354.131897 
	C189.432205,352.570160 190.771576,350.503479 189.201385,348.399231 
	C187.562546,346.202972 185.629608,347.817993 183.938156,348.831696 
	C181.945435,350.025879 180.072891,351.475739 177.971130,352.420868 
	C174.208740,354.112701 171.017609,353.074310 169.146149,349.382874 
	C167.194336,345.532898 168.994888,342.302551 171.532761,339.415009 
	C174.014404,336.591461 177.093582,335.098999 180.859238,336.187439 
	C182.778809,336.742279 184.286957,337.934845 182.049988,340.336426 
z"/>
<path fill="#000000" opacity="1.000000" stroke="none" 
	d="
M548.631836,342.581177 
	C549.980713,346.607880 549.702087,349.923859 546.029846,352.049316 
	C542.101624,354.323029 538.594299,352.956482 535.565002,350.189148 
	C532.222168,347.135376 529.892883,343.555939 531.598633,338.734833 
	C532.092468,337.339020 532.914307,335.736420 534.775330,336.236572 
	C536.655701,336.741913 536.697632,338.388672 536.058105,339.899872 
	C535.335205,341.608063 535.440918,343.134674 536.545959,344.584534 
	C538.143677,346.680695 539.777100,349.671600 542.815857,348.128723 
	C546.390015,346.313934 543.906616,343.618439 542.758606,341.339874 
	C542.385376,340.599091 541.907593,339.911743 541.506470,339.184082 
	C539.535522,335.608521 538.383789,331.931213 542.008972,328.775696 
	C545.196411,326.001282 548.657288,327.053131 551.640564,329.230560 
	C555.179382,331.813507 557.550842,335.163300 556.225952,339.914856 
	C555.865479,341.207520 555.161377,342.635590 553.589111,342.456360 
	C551.615479,342.231384 551.499268,340.578278 551.772705,338.998505 
	C552.261597,336.173553 551.083130,334.149414 548.826660,332.637817 
	C547.666565,331.860626 546.398010,331.409943 545.156372,332.459198 
	C544.025635,333.414703 544.427856,334.571716 544.973999,335.635468 
	C546.111816,337.851776 547.309509,340.037292 548.631836,342.581177 
z"/>
<path fill="#000000" opacity="1.000000" stroke="none" 
	d="
M365.459839,263.249634 
	C369.744202,264.899506 371.863373,267.612091 370.914612,271.900085 
	C369.990662,276.075684 366.798431,277.801605 362.864014,278.171997 
	C358.563202,278.576904 354.453400,278.075958 351.850159,273.978302 
	C350.965637,272.586090 349.944855,270.850098 351.688263,269.508911 
	C353.544525,268.080902 354.706055,269.568176 355.651886,271.056305 
	C357.479309,273.931610 360.254181,274.060120 363.169159,273.562531 
	C364.709961,273.299500 366.108459,272.513000 366.364716,270.825775 
	C366.652008,268.934174 365.095612,268.190216 363.693481,267.717285 
	C361.332947,266.921173 358.879181,266.406433 356.487274,265.697113 
	C352.980347,264.657135 351.244049,262.161285 351.404480,258.605469 
	C351.558929,255.181534 353.725494,253.306854 356.942902,252.372223 
	C362.056641,250.886673 366.952454,252.182770 368.963501,255.783752 
	C369.681641,257.069641 370.643188,258.574951 369.019318,259.803925 
	C367.460236,260.983887 366.245087,260.088776 365.279999,258.707733 
	C363.623260,256.337097 361.299866,255.855835 358.654968,256.504120 
	C357.466736,256.795319 356.498749,257.470978 356.371704,258.826477 
	C356.239716,260.234863 357.172302,261.043518 358.318756,261.391998 
	C360.544678,262.068604 362.829407,262.551941 365.459839,263.249634 
z"/>
<path fill="#000000" opacity="1.000000" stroke="none" 
	d="
M226.669113,712.150757 
	C223.804474,711.887573 223.759735,710.035156 223.842499,708.118286 
	C223.934769,705.980896 223.223160,704.205200 221.546432,702.836426 
	C219.763229,701.380798 217.680252,700.243896 215.672943,701.846191 
	C213.469910,703.604675 215.283890,705.465149 216.332108,707.089478 
	C217.591263,709.040771 219.253647,710.775391 220.258453,712.838989 
	C222.969238,718.406250 219.682892,723.000305 213.525513,722.496887 
	C208.186752,722.060364 203.115158,716.272949 204.038498,711.604248 
	C204.327011,710.145386 204.647675,708.399231 206.680695,708.649597 
	C208.272598,708.845459 208.831055,710.248901 208.581070,711.672729 
	C208.219315,713.733215 208.898483,715.306091 210.439789,716.515564 
	C212.087524,717.808777 214.065109,718.809753 215.821518,717.048279 
	C217.425018,715.440186 215.722336,714.016479 214.842346,712.690308 
	C213.465988,710.616028 211.711899,708.729126 210.679916,706.502380 
	C208.371536,701.521423 211.828506,696.443481 217.314560,696.522339 
	C221.947845,696.588867 225.185242,699.232361 227.382950,702.939636 
	C229.109009,705.851257 230.076904,709.145996 226.669113,712.150757 
z"/>
<path fill="#000000" opacity="1.000000" stroke="none" 
	d="
M198.398071,326.455505 
	C198.844254,323.336975 196.309189,322.265167 195.015472,320.438812 
	C194.178513,319.257263 193.591431,318.129791 194.807281,316.887939 
	C196.234818,315.429932 197.485916,316.056824 198.639679,317.292297 
	C202.960892,321.919434 207.288452,326.540833 211.585419,331.190430 
	C212.766891,332.468872 213.837570,333.901733 212.026886,335.455322 
	C210.456757,336.802521 209.246613,335.696472 208.169586,334.595276 
	C206.553925,332.943359 204.994766,331.236145 203.287552,329.420563 
	C199.964096,330.879547 197.968765,333.527740 195.633789,335.854218 
	C196.168976,338.805267 198.501465,340.361023 200.151779,342.365082 
	C201.188995,343.624603 202.030579,344.835999 200.491028,346.232819 
	C199.176849,347.425232 198.037994,346.765320 197.035461,345.705933 
	C192.570175,340.987549 188.100189,336.273346 183.668915,331.523102 
	C182.601273,330.378632 181.725220,329.034637 183.248444,327.628113 
	C184.476578,326.494049 185.570587,327.080780 186.769882,327.991364 
	C192.784332,332.558014 192.807739,332.527191 198.398071,326.455505 
z"/>
<path fill="#000000" opacity="1.000000" stroke="none" 
	d="
M516.762695,692.757690 
	C520.211121,690.127136 523.523926,688.262146 527.598511,690.191284 
	C529.017700,690.863281 531.131592,691.419922 530.235718,693.651978 
	C529.582947,695.278381 527.984131,695.346619 526.381958,694.760803 
	C522.785889,693.446045 520.290771,695.188416 518.196777,697.856812 
	C517.316162,698.979065 516.969971,700.275879 517.809204,701.559326 
	C518.677490,702.887207 520.073608,702.967468 521.379517,702.493958 
	C524.036438,701.530640 526.595337,700.290222 529.267822,699.378357 
	C532.379639,698.316711 535.258118,698.689087 537.165161,701.727783 
	C538.970520,704.604675 538.624451,707.530945 536.609009,710.105347 
	C533.936584,713.518799 530.677734,716.059570 525.943848,715.120728 
	C524.310913,714.796814 522.386475,714.130981 522.627991,712.067383 
	C522.903992,709.708618 524.803650,710.044800 526.511597,710.533447 
	C527.857849,710.918640 529.167297,710.796875 530.366455,710.077698 
	C532.298462,708.918701 534.337036,707.357788 533.387207,704.976318 
	C532.278259,702.195679 529.977661,704.021729 528.250061,704.619995 
	C526.371521,705.270508 524.666565,706.504395 522.760254,706.973999 
	C519.586182,707.756104 516.416138,707.750916 514.258850,704.585938 
	C512.241272,701.625916 512.420593,698.628784 514.266235,695.693909 
	C514.879517,694.718750 515.735168,693.895996 516.762695,692.757690 
z"/>
<path fill="#000000" opacity="1.000000" stroke="none" 
	d="
M603.880127,516.875000 
	C604.833923,516.138062 605.461853,515.517029 606.214661,515.255615 
	C607.641907,514.759949 609.277344,514.358521 610.191589,516.040466 
	C611.174194,517.848145 609.787048,518.765198 608.446960,519.545349 
	C605.406311,521.315491 604.794373,524.081055 605.276306,527.272827 
	C605.509827,528.819275 606.061584,530.248962 607.867920,530.477051 
	C609.451904,530.677185 610.375854,529.521912 610.889648,528.311035 
	C611.857910,526.029236 612.555725,523.634094 613.411865,521.302917 
	C614.749634,517.660339 617.387878,516.168701 621.208496,516.667786 
	C625.019348,517.165588 626.454102,519.881226 627.039612,523.169617 
	C627.820007,527.552368 625.372009,532.871460 622.106018,534.311340 
	C620.849121,534.865479 619.462708,535.372009 618.509705,533.985779 
	C617.564697,532.611328 618.233337,531.442871 619.569336,530.692566 
	C622.035828,529.307251 622.964172,527.171753 622.744690,524.442810 
	C622.631836,523.039185 622.223999,521.784180 620.668213,521.404541 
	C619.051392,521.010010 618.127441,521.994385 617.616394,523.312012 
	C616.777466,525.475098 616.102173,527.701050 615.320557,529.887146 
	C614.077942,533.362610 611.832214,535.680298 607.906250,535.164856 
	C604.051147,534.658630 601.565857,532.291260 600.937073,528.399841 
	C600.279602,524.331543 600.762878,520.435974 603.880127,516.875000 
z"/>
<path fill="#000000" opacity="1.000000" stroke="none" 
	d="
M390.515900,278.657257 
	C388.369385,276.523682 389.722595,274.312378 389.716003,272.248016 
	C389.707184,269.486542 389.518311,267.195190 385.896057,267.240570 
	C382.657532,267.281128 379.028076,266.185333 378.304871,271.245300 
	C377.972168,273.572815 379.604156,277.889038 375.733643,277.594482 
	C371.646027,277.283356 373.869537,272.982117 373.843170,270.571808 
	C373.787109,265.439423 374.446716,260.299927 374.792511,255.161972 
	C374.906616,253.467133 375.502899,252.139252 377.439758,252.300995 
	C379.434692,252.467560 379.756531,253.948135 379.458130,255.595032 
	C378.677002,259.906586 379.577972,262.671875 384.781769,262.819031 
	C388.648346,262.928345 390.900604,262.024384 390.734528,257.686676 
	C390.668213,255.954742 390.431183,253.553482 393.201691,253.741058 
	C395.946930,253.926941 395.307495,256.386749 395.232635,258.040436 
	C394.969574,263.849365 394.540161,269.651917 394.092743,275.450623 
	C393.945282,277.361450 393.481720,279.186462 390.515900,278.657257 
z"/>
<path fill="#000000" opacity="1.000000" stroke="none" 
	d="
M130.994980,529.193359 
	C134.257202,535.423279 133.802765,541.694336 130.014908,544.581604 
	C128.606186,545.655334 126.803802,547.132263 125.164146,545.420227 
	C123.528458,543.712402 125.235374,542.480042 126.553833,541.418884 
	C127.775215,540.435974 128.530365,539.147095 128.677399,537.603271 
	C128.935883,534.889465 129.108429,531.703064 125.926178,530.908020 
	C122.244507,529.987976 122.490463,533.525757 121.888611,535.769714 
	C121.288948,538.005554 121.114273,540.397461 120.239555,542.508057 
	C118.698235,546.226929 114.537491,547.462402 111.076233,545.542786 
	C106.099060,542.782410 105.250008,532.846680 109.741028,529.364258 
	C110.908897,528.458618 112.442352,527.370972 113.788200,528.561646 
	C115.439140,530.022095 114.537949,531.506653 113.064201,532.716187 
	C112.150208,533.466370 111.410294,534.409973 111.337234,535.643982 
	C111.200043,537.961365 110.757217,540.833618 113.674500,541.474731 
	C116.846001,542.171509 116.607269,539.082886 117.128998,537.131104 
	C117.427292,536.015137 117.518761,534.842163 117.680115,533.691589 
	C118.112968,530.605164 119.048271,527.881592 122.294647,526.594666 
	C125.713394,525.239441 128.445328,526.224915 130.994980,529.193359 
z"/>
<path fill="#000000" opacity="1.000000" stroke="none" 
	d="
M205.284760,695.066223 
	C206.626099,693.570618 207.660141,692.255676 208.832336,691.078247 
	C209.807144,690.098999 211.030762,689.329102 212.345322,690.468750 
	C213.578720,691.538147 213.421921,692.971802 212.450912,694.040955 
	C207.863174,699.092651 203.200424,704.076660 198.524445,709.047180 
	C197.644333,709.982727 196.515259,710.298096 195.434814,709.293274 
	C194.426788,708.355774 194.434723,707.238098 195.160431,706.137817 
	C195.524277,705.586060 195.934723,705.020508 196.447464,704.618652 
	C200.036758,701.806213 199.600189,699.237366 196.111771,696.710449 
	C194.784698,695.749023 193.883224,694.219116 192.079361,693.699707 
	C189.882385,694.313782 188.916885,696.428162 187.376175,697.874329 
	C186.339188,698.847656 185.226105,699.574524 183.890945,698.396240 
	C182.615616,697.270752 182.837494,695.985474 183.841019,694.878174 
	C188.313354,689.943604 192.813629,685.033691 197.359894,680.167297 
	C198.323547,679.135742 199.583481,678.576294 200.882843,679.733276 
	C202.497513,681.171021 201.481079,682.353516 200.469543,683.563293 
	C198.878998,685.465698 197.338654,687.410034 195.279724,689.950134 
	C198.914597,691.498535 199.269867,697.616760 205.284760,695.066223 
z"/>
<path fill="#000000" opacity="1.000000" stroke="none" 
	d="
M552.676758,356.076965 
	C550.978088,357.397888 549.526672,358.516083 548.071411,359.629211 
	C547.040833,360.417511 545.962463,360.735687 544.973572,359.632324 
	C544.054016,358.606354 544.052246,357.268707 545.015625,356.472504 
	C550.530579,351.914886 556.129150,347.457672 561.737366,343.014526 
	C562.634460,342.303864 563.640503,342.514893 564.384033,343.415375 
	C565.266479,344.484192 565.199036,345.611450 564.231689,346.545715 
	C562.570618,348.150024 560.825623,349.667358 559.099792,351.235779 
	C559.328796,353.481506 561.239929,354.589905 562.232117,356.260773 
	C564.151184,359.492523 566.347839,360.270477 569.299438,357.217560 
	C570.549927,355.924133 572.300903,353.689423 574.275940,356.021332 
	C576.195312,358.287689 573.798523,359.632141 572.363098,360.824188 
	C567.879456,364.547607 563.279968,368.131256 558.743347,371.791351 
	C557.442627,372.840759 556.144104,373.420593 554.820679,371.932556 
	C553.422668,370.360657 554.472961,369.192139 555.600769,368.104340 
	C556.078308,367.643738 556.654846,367.286407 557.137634,366.830536 
	C558.624146,365.426941 561.899475,364.793213 561.039124,362.325073 
	C559.978149,359.281616 557.765625,356.565613 554.633972,355.059601 
	C554.276367,354.887604 553.502991,355.580322 552.676758,356.076965 
z"/>
<path fill="#000000" opacity="1.000000" stroke="none" 
	d="
M499.220947,715.578735 
	C500.599640,717.994995 502.111053,718.671326 504.247681,717.022034 
	C506.201080,715.514038 508.208740,714.076416 510.112091,712.667358 
	C509.496002,709.711487 507.543213,707.997559 506.258362,705.900574 
	C505.456757,704.592285 504.471527,703.227234 506.074036,701.936462 
	C507.686646,700.637634 508.898407,701.725647 509.803131,703.027954 
	C513.508240,708.361633 517.149231,713.739807 520.837952,719.085022 
	C521.821228,720.509888 522.113831,721.863770 520.480713,722.952332 
	C518.627075,724.187805 517.779907,722.658325 516.918335,721.449524 
	C515.774841,719.845215 514.702393,718.190308 513.719543,716.734985 
	C511.469788,716.804810 510.332520,718.188965 508.873901,718.912842 
	C504.571503,721.048035 503.849274,723.769287 507.255524,727.418701 
	C508.364349,728.606750 509.710724,730.192871 507.831238,731.699036 
	C505.650177,733.446899 504.595093,731.465698 503.551605,729.969788 
	C500.312134,725.325806 497.049530,720.696655 493.899567,715.992310 
	C492.876038,714.463745 490.775665,712.619080 493.409698,710.943970 
	C495.671661,709.505432 496.515442,711.914001 497.612183,713.250122 
	C498.138306,713.891174 498.560303,714.617676 499.220947,715.578735 
z"/>
<path fill="#000000" opacity="1.000000" stroke="none" 
	d="
M623.369507,540.346191 
	C624.919189,541.166748 625.464661,542.165710 624.893433,543.407715 
	C624.036682,545.270691 622.332275,544.666992 620.961304,544.362671 
	C616.758911,543.429993 614.903320,545.086304 614.328613,549.294006 
	C613.790894,553.230896 614.864624,555.361877 619.002869,555.635132 
	C620.817505,555.754944 623.142212,555.910583 622.802979,558.453186 
	C622.450195,561.096863 619.992188,560.305542 618.340698,560.114624 
	C613.071838,559.505432 607.805725,558.807495 602.584900,557.882141 
	C600.687744,557.545959 597.471436,557.711975 598.155579,554.539795 
	C598.734497,551.855591 601.382935,552.978333 603.244019,553.294800 
	C606.533447,553.854187 609.365051,554.478455 610.059937,549.580505 
	C610.953369,543.283081 611.140869,543.174622 604.486877,542.136963 
	C602.614075,541.845032 599.922791,542.021606 600.322388,539.125183 
	C600.687378,536.479858 603.069336,537.372192 604.786377,537.604370 
	C610.859436,538.425598 616.923096,539.316345 623.369507,540.346191 
z"/>
<path fill="#000000" opacity="1.000000" stroke="none" 
	d="
M124.797760,502.782684 
	C125.933655,502.783783 126.600609,502.753784 127.263252,502.794220 
	C129.035156,502.902283 131.388763,502.494385 131.364151,505.163971 
	C131.338409,507.954742 128.860718,507.245514 127.184044,507.326752 
	C120.167953,507.666718 120.241364,507.746216 120.211372,514.272400 
	C120.194832,517.873230 121.684036,519.051758 125.000809,518.745544 
	C126.154114,518.639099 127.326866,518.723694 128.490097,518.749390 
	C129.909561,518.780701 131.263260,519.074158 131.370651,520.801941 
	C131.499649,522.877563 129.954559,523.226013 128.370560,523.237244 
	C122.053902,523.282104 115.736801,523.288513 109.419983,523.269104 
	C107.828720,523.264221 106.235344,522.911621 106.386406,520.868347 
	C106.535172,518.856018 108.273155,518.608948 109.756149,518.818359 
	C115.175148,519.583557 116.153168,516.818481 115.962639,512.120850 
	C115.808090,508.310333 114.225883,507.172333 110.752480,507.333191 
	C109.043312,507.412323 106.521378,507.858582 106.406769,505.287842 
	C106.271179,502.246948 109.010979,502.884705 110.861565,502.842346 
	C115.348091,502.739594 119.838188,502.793121 124.797760,502.782684 
z"/>
<path fill="#000000" opacity="1.000000" stroke="none" 
	d="
M332.487305,261.585510 
	C333.060059,259.430511 333.278351,257.548737 334.053955,255.934738 
	C335.077545,253.804626 337.543823,252.839355 338.877594,254.752167 
	C343.759735,261.753632 347.614105,269.370544 351.372223,276.942383 
	C348.105225,279.221985 346.544983,277.605988 345.572540,275.579590 
	C343.835754,271.960510 340.882080,271.977448 337.586243,272.222290 
	C334.398529,272.459167 333.506805,274.446198 333.046997,277.155426 
	C332.756104,278.869629 331.791138,280.561584 329.732513,280.051392 
	C327.247192,279.435425 328.384460,277.409241 328.747955,275.929413 
	C329.894257,271.263000 331.160797,266.626129 332.487305,261.585510 
M338.386444,267.755157 
	C342.446411,265.098206 338.680695,264.024475 337.311371,262.441986 
	C337.073212,264.268097 333.948578,266.318634 338.386444,267.755157 
z"/>
<path fill="#000000" opacity="1.000000" stroke="none" 
	d="
M156.022339,360.761902 
	C156.458862,357.269775 158.372391,356.805756 161.082413,357.492157 
	C167.362503,359.082794 173.679611,360.528870 179.947311,362.165344 
	C181.382706,362.540100 183.798203,362.496918 183.234482,364.948883 
	C182.725830,367.161346 180.632294,367.604553 178.803101,366.848969 
	C175.048096,365.297821 172.928619,367.014771 170.961136,369.929321 
	C169.609039,371.932251 169.074936,373.642151 170.624771,375.806946 
	C171.849335,377.517426 173.622498,379.950287 171.059799,381.411469 
	C168.238663,383.019989 167.666245,379.609497 166.636108,378.036652 
	C162.997925,372.481873 159.578552,366.783844 156.022339,360.761902 
M168.843704,365.226135 
	C167.366623,362.992432 165.140182,363.282623 162.704651,363.038177 
	C163.547409,365.381775 164.378860,367.122955 166.200363,368.094208 
	C167.627441,367.838409 168.081833,366.714630 168.843704,365.226135 
z"/>
<path fill="#000000" opacity="1.000000" stroke="none" 
	d="
M526.626343,332.283203 
	C523.837280,327.761597 520.904053,324.442444 515.432373,328.299042 
	C513.476318,329.677734 512.024109,328.562164 510.975739,325.643372 
	C518.120667,321.827301 525.247131,317.711182 532.671631,314.230743 
	C535.133362,313.076721 537.466187,315.018799 536.613220,317.997253 
	C534.606628,325.004578 532.213623,331.902893 529.893433,338.817322 
	C529.483215,340.039825 528.795471,341.496338 527.045959,340.736359 
	C525.704529,340.153564 525.128662,338.864868 525.400635,337.433807 
	C525.708313,335.815033 526.232544,334.237366 526.626343,332.283203 
M527.730530,326.146484 
	C530.151917,325.255341 530.377197,323.329498 530.494019,320.367676 
	C528.165833,322.171509 523.105835,321.280212 527.730530,326.146484 
z"/>
<path fill="#000000" opacity="1.000000" stroke="none" 
	d="
M547.146851,680.913025 
	C548.838562,684.755310 550.430908,688.230835 551.891907,691.760742 
	C552.538391,693.322876 552.871643,694.987854 551.303955,696.334595 
	C549.940613,697.505737 548.537537,697.064209 547.103638,696.477356 
	C540.953552,693.960449 534.784790,691.488708 528.651672,688.931335 
	C527.336975,688.383179 525.439819,687.840637 526.226624,685.857178 
	C527.050476,683.780457 528.953186,683.411377 530.795654,684.461670 
	C533.820618,686.186035 536.096130,685.940430 538.708740,683.307495 
	C541.361694,680.633972 541.317566,678.302002 539.635986,675.381042 
	C538.695435,673.747314 538.759644,671.948730 540.636047,671.124268 
	C542.904907,670.127258 543.390137,672.284607 544.056396,673.698303 
	C545.117493,675.949768 546.022888,678.274597 547.146851,680.913025 
M544.085388,685.182495 
	C541.695862,684.919067 541.060486,686.440857 540.614014,688.441406 
	C542.470398,689.890869 544.268921,690.981201 546.948730,691.009827 
	C545.997070,688.894287 545.254272,687.243103 544.085388,685.182495 
z"/>
<path fill="#000000" opacity="1.000000" stroke="none" 
	d="
M413.059875,258.843445 
	C420.450562,255.872345 427.485596,258.215576 429.257874,263.985931 
	C429.678925,265.356812 430.541107,267.014069 428.444305,267.792542 
	C426.917236,268.359497 425.840179,267.482300 425.302124,266.104584 
	C423.926605,262.582367 421.171875,261.372681 417.719971,261.834625 
	C413.978668,262.335297 412.740570,265.381622 411.843689,268.521576 
	C410.879272,271.897980 410.784546,275.290039 413.680573,277.762878 
	C416.798065,280.424835 420.068848,280.421082 422.860382,277.074646 
	C424.084412,275.607330 425.426208,274.687134 427.035797,276.244263 
	C428.750671,277.903290 427.315765,279.373413 426.218689,280.537262 
	C423.517242,283.403137 420.172516,284.564545 416.252380,283.660400 
	C411.723145,282.615784 407.991669,280.335358 407.140625,275.507202 
	C406.019196,269.144806 406.879486,263.166901 413.059875,258.843445 
z"/>
<path fill="#000000" opacity="1.000000" stroke="none" 
	d="
M111.744957,469.601013 
	C113.729698,468.411865 115.701401,466.579895 117.272659,468.798248 
	C119.051956,471.310425 116.189728,471.978638 114.765961,473.179108 
	C110.871124,476.462952 111.528366,482.147339 116.112358,484.257629 
	C118.857399,485.521362 121.800835,486.198639 124.847305,485.368256 
	C130.229675,483.901276 131.881958,478.123566 127.988144,474.199677 
	C126.682838,472.884277 124.700790,471.677551 126.543999,469.788544 
	C128.258820,468.031097 129.955338,469.741699 131.273392,470.899078 
	C136.999451,475.927246 134.770294,486.910461 127.564804,489.431091 
	C120.976357,491.735870 113.603920,490.012482 110.288246,485.392517 
	C106.905937,480.679810 107.322525,475.116333 111.744957,469.601013 
z"/>
<path fill="#000000" opacity="1.000000" stroke="none" 
	d="
M217.272522,310.884155 
	C218.345886,313.583008 219.828964,315.538544 221.912354,317.027435 
	C223.918320,318.460968 225.998230,319.266327 228.376511,317.879181 
	C230.773560,316.481140 232.800507,314.799164 232.541946,311.669678 
	C232.392853,309.865051 231.626617,307.524475 234.376099,307.487549 
	C237.071075,307.451324 237.115128,310.068481 237.097992,311.976562 
	C237.053833,316.892548 233.919724,319.889893 229.935806,321.934845 
	C225.576691,324.172363 221.488007,322.966675 217.974716,319.876556 
	C213.617523,316.044159 211.024216,311.466553 212.522568,305.368439 
	C213.681976,300.649933 216.769592,297.963684 221.391068,297.031708 
	C222.810516,296.745453 224.403854,296.769226 225.808823,297.105408 
	C227.504166,297.511108 229.845001,298.008270 229.250961,300.459503 
	C228.729050,302.613190 226.776932,301.956024 225.083527,301.687775 
	C218.817062,300.695068 216.324203,303.534973 217.272522,310.884155 
z"/>
<path fill="#000000" opacity="1.000000" stroke="none" 
	d="
M233.810059,732.006287 
	C231.908798,733.354187 230.376785,734.993164 228.207352,733.484009 
	C226.162476,732.061401 226.783966,729.988342 227.098282,728.036255 
	C228.019211,722.316467 228.934784,716.595703 229.893646,710.882202 
	C230.160385,709.292725 230.234360,707.569580 231.911118,706.430237 
	C234.951981,707.100891 235.473877,709.070801 234.641022,711.624512 
	C233.604645,714.802185 235.161728,716.488586 237.667328,718.088318 
	C240.197800,719.703796 242.372849,720.257874 244.818115,718.029175 
	C246.322281,716.658203 248.408020,715.290771 249.946533,717.505188 
	C251.535187,719.791809 248.809662,720.505066 247.525574,721.512756 
	C243.095062,724.989563 238.584427,728.364319 233.810059,732.006287 
M232.404816,723.868286 
	C232.449646,725.124451 231.226837,726.252686 232.040924,727.757385 
	C233.980621,726.433899 235.999939,725.364380 237.496490,723.004333 
	C235.637741,722.086121 234.116898,718.588196 232.404816,723.868286 
z"/>
<path fill="#000000" opacity="1.000000" stroke="none" 
	d="
M114.607529,556.692017 
	C119.781769,553.305664 124.633125,550.104858 129.510193,546.943604 
	C130.759003,546.134155 132.223099,545.073975 133.431412,546.787048 
	C134.663864,548.534363 133.725082,550.194214 132.120499,550.931702 
	C128.648666,552.527405 127.774529,555.017212 128.395584,558.595642 
	C129.005356,562.109192 131.428070,563.029541 134.376663,563.531860 
	C136.421234,563.880249 137.776688,564.838806 137.341156,567.325439 
	C135.202896,569.199463 132.950714,567.700500 130.798660,567.370300 
	C125.877480,566.615173 120.969009,565.755737 116.085602,564.786377 
	C114.082840,564.388916 111.500023,564.640930 110.893661,561.810547 
	C110.300514,559.041687 112.585648,558.137695 114.607529,556.692017 
M122.200043,557.265686 
	C120.785454,558.115784 118.867134,558.370117 118.142761,560.439148 
	C120.303673,560.942322 122.074310,561.988953 124.315979,561.096741 
	C124.569717,559.479919 125.615013,557.664001 122.200043,557.265686 
z"/>
<path fill="#000000" opacity="1.000000" stroke="none" 
	d="
M350.866577,746.853760 
	C359.325439,748.490662 363.326019,754.284180 362.017059,762.415222 
	C360.792542,770.021729 355.760925,773.987427 348.429077,773.138306 
	C344.833740,772.721863 342.251251,770.872253 340.609985,767.671631 
	C340.058929,766.596924 339.555939,765.449524 340.755402,764.530945 
	C342.094147,763.505676 343.369202,764.005859 344.187317,765.246155 
	C346.726196,769.095154 350.103912,770.047668 354.064331,767.890930 
	C357.083313,766.246887 358.487305,759.980652 357.073456,756.052979 
	C355.086304,750.532593 349.064453,749.380005 345.389191,753.927795 
	C344.267578,755.315735 343.342224,756.914978 341.453278,755.622375 
	C339.206482,754.084778 340.787933,752.319885 341.784454,750.911743 
	C343.867920,747.967834 346.900879,746.791565 350.866577,746.853760 
z"/>
<path fill="#000000" opacity="1.000000" stroke="none" 
	d="
M164.750397,665.252686 
	C167.447693,666.410339 166.524780,668.266541 166.366394,670.060303 
	C165.870163,675.679932 170.639084,678.968750 175.870499,676.729492 
	C177.758713,675.921204 179.200897,674.573303 180.564270,673.105042 
	C182.591446,670.921875 184.005920,668.551514 182.613876,665.474487 
	C181.221817,662.397461 178.845535,660.949402 175.428604,661.318481 
	C173.791031,661.495361 171.740524,662.015320 171.536743,659.583679 
	C171.315445,656.942932 173.665253,656.993591 175.400635,656.822083 
	C180.315765,656.336243 183.619751,658.913025 186.014465,662.862610 
	C188.468933,666.910889 187.745514,672.131714 184.312881,676.251038 
	C180.201111,681.185425 174.160934,683.202026 169.281494,681.269470 
	C164.724792,679.464722 161.603241,675.108948 161.720322,670.556885 
	C161.775848,668.398560 161.844452,666.157227 164.750397,665.252686 
z"/>
<path fill="#000000" opacity="1.000000" stroke="none" 
	d="
M597.940918,590.660400 
	C595.644043,592.108032 594.643555,590.439880 593.579346,589.261475 
	C589.935730,585.227051 590.165894,578.459961 594.020020,574.139587 
	C598.070801,569.598694 607.003906,569.467407 612.861328,573.862671 
	C617.529602,577.365601 618.684143,584.344482 615.478638,589.620361 
	C614.684937,590.926758 613.731079,592.113647 612.333679,592.747192 
	C610.458313,593.597290 608.132324,595.486084 606.639954,592.877747 
	C605.136841,590.250549 607.904236,589.643188 609.664551,588.880371 
	C612.178955,587.790771 612.970764,585.731262 612.946899,583.229675 
	C612.906433,578.999207 610.085815,577.031006 606.561157,575.910889 
	C603.133789,574.821655 599.552673,574.270752 596.905090,577.535706 
	C594.838257,580.084534 594.407288,582.935730 596.586975,585.778931 
	C597.631348,587.141235 599.669922,588.183105 597.940918,590.660400 
z"/>
<path fill="#000000" opacity="1.000000" stroke="none" 
	d="
M574.564636,375.159180 
	C586.029236,370.101715 593.740723,379.595703 592.195496,387.366058 
	C591.811218,389.298737 591.344177,391.914703 588.854858,391.469543 
	C586.160522,390.987732 587.070862,388.597595 587.486511,386.581085 
	C588.702759,380.679718 584.405945,376.911255 578.646973,378.731110 
	C576.399048,379.441467 574.362366,380.632416 572.720398,382.294678 
	C570.699829,384.340240 570.049927,386.850403 571.135498,389.624420 
	C572.132324,392.171844 573.926636,393.697052 576.770020,393.748077 
	C578.616211,393.781219 580.916626,393.624359 580.682800,396.258301 
	C580.454712,398.827911 578.016235,398.316711 576.304260,398.243591 
	C568.451172,397.908081 563.681641,387.921631 567.972473,380.915497 
	C569.493103,378.432556 571.685242,376.700775 574.564636,375.159180 
z"/>
<path fill="#000000" opacity="1.000000" stroke="none" 
	d="
M606.374268,497.635895 
	C605.261353,497.156097 604.493408,496.838715 603.708801,496.569977 
	C602.041321,495.998749 600.352905,495.252472 601.217712,493.109406 
	C601.990723,491.193756 603.721130,491.948425 605.098022,492.405792 
	C611.239258,494.445770 617.353577,496.566803 623.492615,498.613525 
	C625.171631,499.173309 626.582703,499.915375 626.709473,501.912537 
	C626.843201,504.020416 625.212769,504.712067 623.714905,505.416840 
	C617.862122,508.170593 612.006897,510.920837 606.112854,513.584167 
	C604.749451,514.200256 602.976746,515.734497 601.957581,513.261108 
	C601.174255,511.360077 602.535278,510.329315 604.078979,509.351776 
	C609.641479,505.829346 610.113403,503.552368 606.374268,497.635895 
M612.338806,503.045532 
	C615.386169,507.337433 616.942749,502.358124 619.283813,502.060364 
	C616.943298,502.217102 614.329041,497.419769 612.338806,503.045532 
z"/>
<path fill="#000000" opacity="1.000000" stroke="none" 
	d="
M468.633850,724.505920 
	C473.410706,720.984863 478.182922,720.447327 482.905823,723.415527 
	C487.819275,726.503479 490.519135,733.801697 489.042908,739.251709 
	C487.715424,744.152649 484.161804,746.575439 479.387360,747.532410 
	C476.975128,748.015930 474.743500,747.576904 472.702545,746.251648 
	C471.558228,745.508545 470.376404,744.580444 471.220490,743.028381 
	C471.948944,741.688965 473.281677,741.219360 474.625641,742.121948 
	C477.819092,744.266846 480.657867,743.700928 483.077393,741.003845 
	C485.486633,738.318298 485.196808,735.232483 483.905975,732.105896 
	C482.481628,728.655884 480.255157,725.818359 476.370361,725.647339 
	C472.289429,725.467773 469.963470,728.014160 469.462524,732.059082 
	C469.272156,733.596497 469.281586,735.340942 467.138519,735.119812 
	C464.848083,734.883423 464.970551,732.919067 465.004272,731.264587 
	C465.058868,728.584534 466.562195,726.590759 468.633850,724.505920 
z"/>
<path fill="#000000" opacity="1.000000" stroke="none" 
	d="
M436.719849,490.849365 
	C438.796082,455.311798 440.835785,420.244781 442.939178,385.181610 
	C443.826294,370.393860 444.856842,355.614716 445.803345,340.830475 
	C446.136749,335.622375 446.684509,335.212677 451.464264,336.847931 
	C453.039429,337.386841 454.579651,338.039948 456.176086,338.501831 
	C459.222473,339.383148 460.337982,341.304413 460.139709,344.467010 
	C458.972534,363.079803 457.961517,381.702423 456.805939,400.315979 
	C455.702332,418.092316 454.418884,435.857544 453.334686,453.634979 
	C451.348083,486.210205 449.454651,518.791138 447.513031,551.369080 
	C446.443604,569.313110 445.382141,587.257629 444.268921,605.198975 
	C442.701721,630.457458 441.222656,655.722595 439.435974,680.965759 
	C438.651520,692.049438 438.348633,692.025269 427.433655,694.230408 
	C423.517639,695.021606 419.544128,695.612854 415.707367,696.689331 
	C411.588867,697.844849 410.347015,696.160828 410.043243,692.345886 
	C408.696045,675.426270 407.248383,658.514160 405.751099,641.606995 
	C403.093445,611.595825 400.375732,581.589966 397.667786,551.583313 
	C397.594696,550.773315 397.345673,549.979187 396.592224,549.160217 
	C396.162964,554.615479 395.648834,560.065613 395.318329,565.526855 
	C393.316711,598.600342 391.325500,631.674622 389.402496,664.752747 
	C388.822723,674.725159 388.346161,684.707458 388.077087,694.692078 
	C387.969513,698.683472 386.543671,700.408875 382.417114,700.286072 
	C375.923981,700.092773 369.415619,700.144592 362.921814,700.349976 
	C359.563263,700.456116 358.188049,699.268005 357.900604,695.854736 
	C355.219208,664.015686 352.469849,632.182007 349.625488,600.356995 
	C347.195496,573.168457 344.549683,545.999207 342.118774,518.810730 
	C339.554352,490.129333 337.188629,461.430237 334.630035,432.748322 
	C332.248993,406.056946 329.732025,379.377716 327.266815,352.693909 
	C326.623749,345.733032 325.992249,338.770630 325.269592,331.817841 
	C324.998901,329.213440 325.861633,327.628113 328.559296,327.249756 
	C331.359497,326.857025 334.150848,326.391998 336.958160,326.061493 
	C339.427765,325.770813 340.055664,327.350769 340.237061,329.431732 
	C341.899048,348.497162 343.573486,367.561584 345.274536,386.623566 
	C347.093445,407.006683 348.975311,427.384216 350.771881,447.769257 
	C351.985107,461.535400 353.075043,475.312286 354.261169,489.080872 
	C356.403961,513.953735 358.570068,538.824646 360.740051,563.695190 
	C362.924469,588.731140 365.120911,613.766113 367.325134,638.800354 
	C367.602600,641.951355 368.040283,645.089966 368.254944,648.244385 
	C368.440735,650.974731 369.846100,652.039490 372.472961,651.993591 
	C375.137146,651.947021 375.755768,650.367188 375.896820,648.083984 
	C376.789612,633.632812 377.838898,619.190796 378.654785,604.735474 
	C380.690735,568.664124 382.605164,532.585938 384.617798,496.513245 
	C385.582275,479.226929 386.824432,461.954041 387.571533,444.659088 
	C387.766144,440.153778 388.964600,438.519257 393.645386,438.724701 
	C402.911743,439.131409 402.669098,439.010925 403.343842,448.301178 
	C404.645294,466.219910 406.393738,484.106018 407.932861,502.007721 
	C409.386536,518.915771 410.768188,535.830017 412.256256,552.735046 
	C414.109161,573.785034 416.056122,594.826660 417.927094,615.875061 
	C418.722748,624.825928 419.428436,633.784668 420.175262,642.739868 
	C420.384216,645.245483 420.232086,647.923462 423.990906,647.927124 
	C427.589111,647.930542 427.785675,645.597290 427.935211,642.901367 
	C429.871704,607.993958 431.828064,573.087646 433.832733,538.184082 
	C434.730103,522.559692 435.746613,506.942169 436.719849,490.849365 
z"/>
<path fill="#000000" opacity="1.000000" stroke="none" 
	d="
M302.080688,542.846802 
	C299.122437,564.724792 296.242126,586.164246 293.347229,607.601746 
	C292.056030,617.163391 290.741943,626.721863 289.425873,636.280090 
	C288.555420,642.601501 288.974609,643.289551 295.329285,644.475586 
	C304.327362,646.155029 313.336243,647.784302 322.365143,649.286987 
	C325.605072,649.826294 327.344330,651.021301 327.363190,654.722412 
	C327.425934,667.047424 327.845306,679.370056 328.017120,691.695190 
	C328.093597,697.179688 327.569580,697.592285 322.290588,696.208435 
	C307.962616,692.452759 293.676483,688.537292 279.344055,684.799072 
	C275.149841,683.705139 273.534058,681.451111 273.573090,676.964172 
	C273.659973,666.979065 272.890137,656.987671 272.928497,647.000671 
	C272.988098,631.476929 276.112793,616.249207 278.018707,600.909485 
	C280.787079,578.627869 283.846832,556.382324 286.798889,534.123657 
	C290.255219,508.062378 293.739899,482.004852 297.192627,455.943085 
	C300.361938,432.020447 303.516510,408.095886 306.634430,384.166534 
	C306.844604,382.553436 307.178528,380.858826 306.063629,378.745941 
	C300.938385,378.607666 296.025635,380.806519 290.938629,381.857300 
	C285.563599,382.967560 280.229004,384.307312 274.932037,385.749878 
	C271.566925,386.666290 269.840302,385.906769 269.767944,382.154633 
	C269.546204,370.662537 269.256897,359.171417 268.913147,347.682312 
	C268.838226,345.178802 269.635040,343.573456 272.151550,342.812317 
	C287.130585,338.281860 302.055115,333.566315 317.080170,329.195465 
	C322.907745,327.500214 323.292847,328.123932 323.306885,334.140594 
	C323.327148,342.800934 323.213287,351.458130 323.892181,360.114624 
	C325.115051,375.706299 321.898376,390.969025 319.979919,406.304962 
	C316.592926,433.380371 312.877869,460.414612 309.320740,487.468811 
	C306.913208,505.779327 304.540802,524.094482 302.080688,542.846802 
z"/>
<path fill="#000000" opacity="1.000000" stroke="none" 
	d="
M262.594788,560.438843 
	C260.261566,573.376709 257.021301,585.574707 250.836884,596.800598 
	C249.716980,598.833313 248.636642,601.175110 246.882370,602.517334 
	C241.597626,606.560730 242.485214,611.181641 244.077103,616.693665 
	C249.294464,634.759338 254.056351,652.956604 258.982971,671.106079 
	C259.284485,672.216858 259.700531,673.355408 258.335510,675.359314 
	C251.946747,669.986389 242.574326,668.879578 240.387482,658.160889 
	C237.396332,643.500061 233.100784,629.106934 229.448013,614.578064 
	C228.675735,611.506348 227.181137,609.327209 224.399231,607.590149 
	C219.232437,604.363953 214.348099,600.685303 208.195053,596.391846 
	C208.195053,608.301453 208.195053,618.867737 208.195053,629.434082 
	C207.722916,629.560364 207.250778,629.686646 206.778641,629.812988 
	C202.862442,625.872314 198.893524,622.074280 198.833099,615.606384 
	C198.710144,602.448669 198.482315,589.294617 198.060287,576.137085 
	C197.259201,551.162476 197.163681,526.166138 196.547516,501.184418 
	C195.833069,472.217987 195.080460,443.249054 193.882507,414.300293 
	C193.563614,406.594147 198.348099,401.946564 202.200562,396.765839 
	C207.256989,389.966003 212.815094,383.509796 218.854813,377.503357 
	C227.242294,369.162201 237.655426,369.648438 245.229507,378.866699 
	C252.305649,387.478912 255.440277,397.890533 258.271301,408.345245 
	C263.951874,429.322845 266.121887,450.806610 267.331970,472.454468 
	C268.496613,493.290192 268.227478,514.072205 266.188080,534.818298 
	C265.359192,543.250671 263.872528,551.618347 262.594788,560.438843 
M251.131088,449.258545 
	C250.636536,446.478394 250.332703,443.647827 249.613403,440.927094 
	C246.934097,430.792572 244.565948,420.472137 236.384521,412.939941 
	C231.516876,408.458618 226.347153,407.931244 221.013763,411.858154 
	C216.603806,415.105133 212.691376,419.021759 208.338379,422.354156 
	C204.971283,424.931793 203.886490,427.925049 203.986938,432.193481 
	C204.903198,471.127899 205.636353,510.066956 206.308121,549.006592 
	C206.572540,564.334412 206.440201,564.336670 220.403732,570.356628 
	C229.595352,574.319397 235.151489,572.753235 240.938171,564.504028 
	C247.324234,555.400391 250.010651,544.910217 251.642120,534.185974 
	C255.904175,506.169556 254.853897,478.130341 251.131088,449.258545 
z"/>
<path fill="#000000" opacity="1.000000" stroke="none" 
	d="
M470.612000,393.767090 
	C472.263519,384.122253 474.629791,375.129303 478.555878,366.598938 
	C479.182068,365.238373 479.811615,363.868744 480.574249,362.583191 
	C488.891296,348.563568 500.026489,349.173889 508.613220,359.538910 
	C518.980408,372.053101 524.705017,386.643860 529.088440,401.929260 
	C531.889954,411.698334 533.555420,421.729309 535.035645,431.770172 
	C535.369873,434.037079 536.472351,436.802612 533.729736,438.608337 
	C529.482178,441.404877 526.668457,440.080750 525.764282,435.036926 
	C523.812378,424.147949 520.710449,413.655914 514.672302,404.233124 
	C513.864380,402.972382 513.030762,401.721466 512.120300,400.534027 
	C502.592072,388.107330 493.179138,389.242157 486.848053,403.565277 
	C484.196381,409.564240 482.541321,415.910736 482.003632,422.361633 
	C480.606506,439.123871 479.322754,455.963379 485.108521,472.287415 
	C488.954498,483.138550 495.935181,490.266327 507.928864,492.017273 
	C520.442444,493.844055 527.839355,501.981110 532.085999,513.370361 
	C535.903931,523.609802 537.530090,534.366150 538.038818,545.152527 
	C539.517700,576.510315 536.626404,607.352661 525.101440,636.902161 
	C521.635925,645.787659 517.031555,654.067444 510.696899,661.301453 
	C502.827484,670.288086 492.640869,670.034180 485.251953,660.611816 
	C480.232391,654.210815 477.275391,646.793884 474.891663,639.130798 
	C473.657227,635.162476 472.611084,631.128052 471.654999,627.082092 
	C469.242493,616.872925 472.626984,608.731567 481.927917,602.260559 
	C484.202606,604.313843 484.085388,607.366394 484.969391,609.951843 
	C486.701111,615.016479 488.412170,620.062744 491.965637,624.197571 
	C497.145142,630.224609 503.460480,630.601929 509.327209,625.157349 
	C517.951965,617.153076 522.391846,606.728577 525.420471,595.726379 
	C529.842407,579.662659 530.864380,563.271973 528.589905,546.740540 
	C526.942444,534.766357 520.393860,529.186707 508.351074,529.233032 
	C493.668365,529.289612 485.015533,523.223694 478.703369,508.486816 
	C472.930450,495.009033 470.568695,480.708466 469.014313,466.303070 
	C466.524872,443.231659 466.273560,420.136078 469.909546,397.119232 
	C470.065186,396.134247 470.336609,395.167511 470.612000,393.767090 
z"/>
<path fill="#000000" opacity="1.000000" stroke="none" 
	d="
M541.860352,449.000000 
	C541.859070,436.058502 541.859070,423.617004 541.859070,411.175507 
	C542.333923,411.026093 542.808716,410.876648 543.283569,410.727203 
	C546.042542,415.087921 549.297119,419.143555 549.288269,424.957886 
	C549.265442,439.957184 549.523926,454.959290 549.294861,469.954498 
	C549.223572,474.622070 550.468079,478.310303 553.497375,481.741547 
	C556.982422,485.689056 560.184998,489.885925 564.713074,493.633972 
	C564.713074,489.651978 564.713074,485.669983 564.713074,481.687988 
	C565.430969,481.696167 566.148804,481.704315 566.866699,481.712463 
	C567.641907,500.069031 567.343384,518.440247 567.048035,537.786621 
	C564.167236,535.825439 564.753357,533.891785 564.736450,532.286316 
	C564.664551,525.453857 564.443481,518.606018 564.809570,511.792389 
	C565.036743,507.565765 563.591248,505.182434 559.610291,504.046997 
	C556.796143,503.244293 554.241821,501.475098 551.230896,501.549438 
	C549.474487,503.855225 550.120422,506.266785 550.123657,508.515991 
	C550.165466,537.181580 550.223206,565.847351 550.388611,594.512451 
	C550.420166,599.983032 547.761841,604.092529 544.433350,608.192322 
	C542.028503,555.235901 543.402710,502.343231 541.860352,449.000000 
z"/>
<path fill="#000000" opacity="1.000000" stroke="none" 
	d="
M169.225113,509.084106 
	C168.737610,530.180725 173.129913,549.909241 180.219406,569.103271 
	C181.927246,573.727051 183.672104,578.639404 189.911209,579.250122 
	C191.723709,579.427490 191.816223,581.417786 192.024918,582.849670 
	C192.888199,588.772705 193.677734,594.707092 194.422424,600.646362 
	C194.613434,602.169678 195.732315,604.085510 193.491348,605.000061 
	C191.612259,605.766907 189.880005,605.046021 188.435745,603.747803 
	C185.259811,600.892822 183.330460,597.214294 181.714859,593.345337 
	C177.585220,583.455627 175.504456,572.965027 172.973236,562.630615 
	C169.366409,547.904907 166.879822,532.918823 166.055374,517.794434 
	C165.357407,504.990631 167.393326,492.241028 169.033997,479.545471 
	C170.783859,466.004944 173.471466,452.630463 176.863632,439.398010 
	C178.167923,434.310150 180.191223,429.599823 183.775925,425.725006 
	C185.233521,424.149475 187.105911,422.557068 189.469177,423.699066 
	C191.677521,424.766144 190.617371,426.859772 190.419693,428.608307 
	C189.784119,434.229980 189.169632,439.854156 188.496582,445.471344 
	C188.324188,446.910065 188.472321,448.778137 186.542236,449.102997 
	C181.097885,450.019379 179.564453,454.394806 178.154709,458.646881 
	C172.780365,474.856628 169.904465,491.536804 169.225113,509.084106 
z"/>
</svg>